HIERARCHY
ROOT Hips
{
	OFFSET -0.001795 -0.223333 0.028219
	CHANNELS 6 Xposition Yposition Zposition Zrotation Yrotation Xrotation 
	JOINT LeftUpLeg
	{
		OFFSET 0.069520 -0.091406 -0.006815
		CHANNELS 3 Zrotation Yrotation Xrotation
		JOINT LeftLeg
		{
			OFFSET 0.034277 -0.375199 -0.004496
			CHANNELS 3 Zrotation Yrotation Xrotation
			JOINT LeftFoot
			{
				OFFSET -0.013596 -0.397961 -0.043693
				CHANNELS 3 Zrotation Yrotation Xrotation
				JOINT LeftToe
				{
					OFFSET 0.026358 -0.055791 0.119288
					CHANNELS 3 Zrotation Yrotation Xrotation
					End Site
					{
						OFFSET 0.000000 0.000000 0.000000
					}
				}
			}
		}
	}
	JOINT RightUpLeg
	{
		OFFSET -0.067670 -0.090522 -0.004320
		CHANNELS 3 Zrotation Yrotation Xrotation
		JOINT RightLeg
		{
			OFFSET -0.038290 -0.382569 -0.008850
			CHANNELS 3 Zrotation Yrotation Xrotation
			JOINT RightFoot
			{
				OFFSET 0.015774 -0.398415 -0.042312
				CHANNELS 3 Zrotation Yrotation Xrotation
				JOINT RightToe
				{
					OFFSET -0.025372 -0.048144 0.123348
					CHANNELS 3 Zrotation Yrotation Xrotation
					End Site
					{
						OFFSET 0.000000 0.000000 0.000000
					}
				}
			}
		}
	}
	JOINT Spine
	{
		OFFSET -0.002533 0.108963 -0.026696
		CHANNELS 3 Zrotation Yrotation Xrotation
		JOINT Spine1
		{
			OFFSET 0.005487 0.135180 0.001092
			CHANNELS 3 Zrotation Yrotation Xrotation
			JOINT Spine2
			{
				OFFSET 0.001457 0.052922 0.025425
				CHANNELS 3 Zrotation Yrotation Xrotation
				JOINT Neck
				{
					OFFSET -0.002778 0.213870 -0.042857
					CHANNELS 3 Zrotation Yrotation Xrotation
					JOINT Head
					{
						OFFSET 0.005152 0.064970 0.051349
						CHANNELS 3 Zrotation Yrotation Xrotation
						End Site
						{
							OFFSET 0.000000 0.000000 0.000000
						}
					}
				}
				JOINT LeftShoulder
				{
					OFFSET 0.078845 0.121749 -0.034090
					CHANNELS 3 Zrotation Yrotation Xrotation
					JOINT LeftArm
					{
						OFFSET 0.090977 0.030469 -0.008868
						CHANNELS 3 Zrotation Yrotation Xrotation
						JOINT LeftForeArm
						{
							OFFSET 0.259612 -0.012772 -0.027456
							CHANNELS 3 Zrotation Yrotation Xrotation
							JOINT LeftHand
							{
								OFFSET 0.249234 0.008986 -0.001171
								CHANNELS 3 Zrotation Yrotation Xrotation
								End Site
								{
									OFFSET 0.000000 0.000000 0.000000
								}
							}
						}
					}
				}
				JOINT RightShoulder
				{
					OFFSET -0.081759 0.118833 -0.038615
					CHANNELS 3 Zrotation Yrotation Xrotation
					JOINT RightArm
					{
						OFFSET -0.096012 0.032551 -0.009143
						CHANNELS 3 Zrotation Yrotation Xrotation
						JOINT RightForeArm
						{
							OFFSET -0.253742 -0.013329 -0.021401
							CHANNELS 3 Zrotation Yrotation Xrotation
							JOINT RightHand
							{
								OFFSET -0.255298 0.007772 -0.005559
								CHANNELS 3 Zrotation Yrotation Xrotation
								End Site
								{
									OFFSET 0.000000 0.000000 0.000000
								}
							}
						}
					}
				}
			}
		}
	}
}
MOTION
Frames: 9
Frame Time: 0.050000
0.000000 0.932014 0.000000 -1.672451 1.973428 2.754456 4.302177 -0.308311 -3.989041 -2.729557 0.225985 4.950034 2.909436 5.587291 -1.467261 0.000000 0.000000 0.000000 -0.250668 0.699731 -7.040204 0.812302 0.276091 12.448198 -2.829020 -6.881288 -1.005259 0.000000 0.000000 0.000000 -1.409228 -0.101797 4.235952 2.361088 0.155123 -26.056419 -1.323601 -1.290355 28.652701 0.609737 1.007443 -22.968692 0.000000 0.000000 0.000000 -2.895277 9.262432 -3.714495 -19.592162 -8.841793 -2.253579 17.910337 -5.080410 -0.448739 0.000000 0.000000 0.000000 -5.737754 -4.636903 -1.237140 23.856884 5.563769 -2.581698 -15.783745 5.602134 -0.196128 0.000000 0.000000 0.000000 
0.000482 0.931964 -0.000024 -2.004325 1.565055 2.910023 4.714602 -0.246434 -2.864308 -2.800410 0.256616 3.567725 2.986147 5.304528 -2.706469 0.000000 0.000000 0.000000 0.138942 0.661710 -6.517495 0.481803 0.318211 11.164665 -2.920827 -7.082168 -1.089942 0.000000 0.000000 0.000000 -1.080255 -0.122865 4.355407 2.242105 0.193834 -26.454969 -0.776192 -1.232706 28.198021 -1.076309 2.036417 -23.238220 0.000000 0.000000 0.000000 -2.219854 9.151026 -3.581757 -20.378529 -8.764390 -2.324410 14.528322 -3.829678 -0.205425 0.000000 0.000000 0.000000 -6.154166 -4.811974 -1.240096 24.910097 3.893761 -2.910910 -16.456558 8.684592 -0.569913 0.000000 0.000000 0.000000 
0.000865 0.931334 -0.000218 -1.917457 1.010864 2.578769 4.819681 -0.233750 -2.791098 -2.817927 0.252647 4.681279 3.300754 5.862141 -3.168592 0.000000 0.000000 0.000000 -0.548452 0.693191 -7.069535 1.452964 0.169856 12.928705 -2.545430 -6.041093 -1.233686 0.000000 0.000000 0.000000 -0.517319 -0.168639 4.737451 1.520153 0.367247 -27.214292 -0.643260 -0.266679 30.089645 -0.480598 1.851892 -24.915113 0.000000 0.000000 0.000000 -2.581923 9.568354 -3.812022 -20.330051 -9.867107 -2.245105 16.338320 -3.714895 -0.251006 0.000000 0.000000 0.000000 -5.290954 -5.929722 -1.716961 25.115138 4.928333 -2.877789 -18.174482 6.366069 -0.316099 0.000000 0.000000 0.000000 
0.001142 0.931291 -0.000364 -2.012001 1.230576 2.454286 4.659367 -0.238927 -2.873190 -2.831730 0.245805 5.296153 3.083817 5.083219 -3.895806 0.000000 0.000000 0.000000 -0.540809 0.687966 -7.013862 1.679061 0.104221 12.510258 -2.452948 -5.994607 -0.708951 0.000000 0.000000 0.000000 -0.782087 -0.146517 4.528436 2.142711 0.239328 -27.226145 -0.968057 -0.988551 30.796490 -1.489194 2.359723 -25.154345 0.000000 0.000000 0.000000 -2.159337 10.222678 -4.002312 -21.625555 -9.236522 -2.456599 17.531629 -3.510131 -0.221884 0.000000 0.000000 0.000000 -5.854508 -5.697937 -1.566990 25.353741 4.755891 -2.939464 -18.083016 5.685579 -0.251270 0.000000 0.000000 0.000000 
0.001265 0.931357 -0.000453 -2.054372 1.022102 2.010933 4.541377 -0.239632 -3.004965 -2.555441 0.193690 6.229414 3.166592 5.283748 -3.893943 0.000000 0.000000 0.000000 -0.455926 0.691961 -7.029109 1.514926 0.154639 12.898680 -2.750871 -6.881119 -0.308786 0.000000 0.000000 0.000000 -0.961980 -0.159444 5.171729 2.833409 0.082325 -27.045361 -1.003754 -0.328019 30.459538 -0.955927 2.097817 -24.162779 0.000000 0.000000 0.000000 -2.337988 10.041103 -3.961313 -21.926012 -9.096993 -2.475351 17.835201 -3.400019 -0.236770 0.000000 0.000000 0.000000 -5.112649 -5.598854 -1.621776 25.412878 4.133662 -3.033999 -18.352582 5.638886 -0.227376 0.000000 0.000000 0.000000 
0.001385 0.931177 -0.000500 -1.985882 1.312447 1.864265 4.191586 -0.260156 -3.329287 -2.397116 0.152987 6.991533 3.233152 5.252557 -4.310779 0.000000 0.000000 0.000000 -0.641436 0.677081 -6.950285 1.489121 0.156122 13.050947 -2.920729 -7.328559 -0.265732 0.000000 0.000000 0.000000 -1.165224 -0.148386 5.181802 2.727641 0.083156 -26.490443 -0.806351 -1.103423 30.444586 -1.104809 2.095962 -24.546698 0.000000 0.000000 0.000000 -2.309747 10.286392 -4.042476 -22.579281 -8.701888 -2.596635 18.944686 -3.200939 -0.203829 0.000000 0.000000 0.000000 -5.417899 -5.847686 -1.635051 26.264852 4.410925 -3.066754 -18.635228 5.726219 -0.266288 0.000000 0.000000 0.000000 
0.001395 0.931234 -0.000685 -1.924560 1.152981 1.676799 4.290318 -0.267862 -3.548581 -2.484409 0.161593 7.554886 3.260130 5.363507 -4.214273 0.000000 0.000000 0.000000 -0.661622 0.707511 -7.285951 1.145953 0.257328 13.791536 -2.688002 -6.726845 -0.298212 0.000000 0.000000 0.000000 -1.252112 -0.161212 5.740044 2.836348 0.056629 -26.472955 -0.839952 -1.004710 30.337475 -0.935212 1.986370 -24.371327 0.000000 0.000000 0.000000 -2.797887 10.237633 -4.089014 -22.254292 -8.467858 -2.600607 19.487279 -2.485517 -0.121310 0.000000 0.000000 0.000000 -4.617567 -5.891589 -1.713303 26.085869 4.252955 -3.078485 -19.259108 6.043933 -0.328352 0.000000 0.000000 0.000000 
0.001447 0.930963 -0.000962 -2.063125 1.015532 1.557354 4.472645 -0.282198 -3.915485 -2.541948 0.161605 8.410909 3.458912 5.701150 -4.555894 0.000000 0.000000 0.000000 -0.519832 0.764881 -7.827320 1.075270 0.310886 15.007612 -2.651849 -6.622818 -0.325385 0.000000 0.000000 0.000000 -1.272538 -0.173011 6.139470 2.868449 0.042560 -26.366123 -0.669787 -1.229911 30.366197 -0.881451 1.901321 -24.432004 0.000000 0.000000 0.000000 -3.207362 10.341229 -4.179309 -22.113529 -8.055675 -2.653902 19.987212 -2.136131 -0.066179 0.000000 0.000000 0.000000 -4.315502 -6.163749 -1.809498 26.229920 4.749382 -3.018107 -19.828278 6.106158 -0.366748 0.000000 0.000000 0.000000 
0.001513 0.930807 -0.001302 -2.131992 0.739889 1.509893 4.539689 -0.278675 -3.926567 -2.613497 0.176873 8.593740 3.439823 5.575249 -4.836307 0.000000 0.000000 0.000000 -0.507005 0.798854 -8.171418 1.100599 0.328776 15.549895 -2.638570 -6.622707 -0.214775 0.000000 0.000000 0.000000 -1.333955 -0.177855 6.439280 2.955782 0.023612 -26.451660 -0.540909 -1.217661 30.287948 -0.850957 1.865141 -24.627146 0.000000 0.000000 0.000000 -3.628113 10.391064 -4.252498 -22.011039 -7.828615 -2.676991 20.495339 -1.857684 -0.024014 0.000000 0.000000 0.000000 -4.009711 -6.149997 -1.822366 25.964460 5.067812 -2.937175 -20.453719 6.311996 -0.427419 0.000000 0.000000 0.000000 
